{"title":"The Adventures of Priscilla Queen of the Desert (1994) DVDRip Xv","uid":8874367,"size":1193638775,"categoryP":"video","categoryS":"movies","magnet":"?xt=urn:btih:63a6831b7de7385e945957fc6fc01b6248c9b9da&amp;dn=The+Adventures+of+Priscilla+Queen+of+the+Desert+%281994%29+DVDRip+Xv&amp;tr=udp%3A%2F%2Ftracker.openbittorrent.com%3A80&amp;tr=udp%3A%2F%2Fopen.demonii.com%3A1337&amp;tr=udp%3A%2F%2Ftracker.coppersurfer.tk%3A6969&amp;tr=udp%3A%2F%2Fexodus.desync.com%3A6969","seeders":28,"leechers":12,"uploader":"peaSoup","files":-1,"time":1378153092,"description":"Storyline\n\nTwo drag-queens (Anthony/Mitzi and Adam/Felicia) and a transexual (Bernadette) contract to perform a drag show at a resort in Alice Springs, a resort town in the remote Australian desert. They head west from Sydney aboard their lavender bus, Priscilla. En route, it is discovered that the woman they've contracted with is Anthony's wife. Their bus breaks down, and is repaired by Bob, who travels on with them.                                                                               &lt;a href=&quot; http://imageshack.us/a/img191/9752/5rjn.jpg&quot; rel=&quot;nofollow&quot; target=&quot;_NEW&quot;&gt; http://imageshack.us/a/img191/9752/5rjn.jpg&lt;/a&gt;                                         &lt;a href=&quot; http://imageshack.us/a/img690/3014/ncyz.jpg&quot; rel=&quot;nofollow&quot; target=&quot;_NEW&quot;&gt; http://imageshack.us/a/img690/3014/ncyz.jpg&lt;/a&gt;                                         &lt;a href=&quot; http://imageshack.us/a/img585/9200/ypyr.jpg&quot; rel=&quot;nofollow&quot; target=&quot;_NEW&quot;&gt; http://imageshack.us/a/img585/9200/ypyr.jpg&lt;/a&gt;                                         &lt;a href=&quot; http://imageshack.us/a/img580/3842/ecr5.jpg&quot; rel=&quot;nofollow&quot; target=&quot;_NEW&quot;&gt; http://imageshack.us/a/img580/3842/ecr5.jpg&lt;/a&gt;                                         &lt;a href=&quot; http://imageshack.us/a/img593/6504/jdou.jpg&quot; rel=&quot;nofollow&quot; target=&quot;_NEW&quot;&gt; http://imageshack.us/a/img593/6504/jdou.jpg&lt;/a&gt;                                          Format                                   : AVI\nFormat/Info                              : Audio Video Interleave\nFormat profile                           : OpenDML\nFile size                                : 1.08 GiB\nDuration                                 : 1h 38mn\nOverall bit rate                         : 1 561 Kbps\nMovie name                               : The Adventures of Priscilla Queen of the Desert (1994) DVDRip XviD AC3 peaSoup\nWriting application                      : Lavf53.21.0\nOriginal source form/Name                : PRISCILLA_SE\n\nVideo\nID                                       : 0\nFormat                                   : MPEG-4 Visual\nFormat profile                           : Advanced Simple@L5\nFormat settings, BVOP                    : 2\nFormat settings, QPel                    : No\nFormat settings, GMC                     : No warppoints\nFormat settings, Matrix                  : Default (H.263)\nMuxing mode                              : Packed bitstream\nCodec ID                                 : XVID\nCodec ID/Hint                            : XviD\nDuration                                 : 1h 38mn\nBit rate                                 : 1 100 Kbps\nWidth                                    : 720 pixels\nHeight                                   : 306 pixels\nDisplay aspect ratio                     : 2.35:1\nFrame rate                               : 25.000 fps\nColor space                              : YUV\nChroma subsampling                       : 4:2:0\nBit depth                                : 8 bits\nScan type                                : Progressive\nCompression mode                         : Lossy\nBits/(Pixel*Frame)                       : 0.200\nStream size                              : 777 MiB (70%)\nWriting library                          : XviD 1.2.1 (UTC 2008-12-04)\n\nAudio\nID                                       : 1\nFormat                                   : AC-3\nFormat/Info                              : Audio Coding 3\nMode extension                           : CM (complete main)\nFormat settings, Endianness              : Big\nCodec ID                                 : 2000\nDuration                                 : 1h 38mn\nBit rate mode                            : Constant\nBit rate                                 : 448 Kbps\nChannel(s)                               : 6 channels\nChannel positions                        : Front: L C R, Side: L R, LFE\nSampling rate                            : 48.0 KHz\nBit depth                                : 16 bits\nCompression mode                         : Lossy\nStream size                              : 317 MiB (29%)\nAlignment                                : Aligned on interleaves\nInterleave, duration                     : 32 ms (0.80 video frame)\n\n","torrent":{"xt":"urn:btih:63a6831b7de7385e945957fc6fc01b6248c9b9da","amp;dn":"The+Adventures+of+Priscilla+Queen+of+the+Desert+%281994%29+DVDRip+Xv","amp;tr":["udp%3A%2F%2Ftracker.openbittorrent.com%3A80","udp%3A%2F%2Fopen.demonii.com%3A1337","udp%3A%2F%2Ftracker.coppersurfer.tk%3A6969","udp%3A%2F%2Fexodus.desync.com%3A6969"],"infoHash":"63a6831b7de7385e945957fc6fc01b6248c9b9da","infoHashBuffer":{"type":"Buffer","data":[99,166,131,27,125,231,56,94,148,89,87,252,111,192,27,98,72,201,185,218]},"announce":[],"urlList":[]}}